<svg xmlns="http://www.w3.org/2000/svg" xmlns:xlink="http://www.w3.org/1999/xlink" height="300px" width="300px" fill="#aa9763" version="1.1" x="0px" y="0px" viewBox="0 0 48 48" enable-background="new 0 0 48 48" xml:space="preserve"><circle cx="24" cy="7.013" r="5.625"/><path d="M32.587,16.36c-1.296-1.239-3.037-1.635-4.19-1.757c-0.136-0.033-0.274-0.054-0.42-0.054h-7.951  c-0.145,0-0.284,0.021-0.419,0.054c-1.153,0.123-2.896,0.518-4.193,1.758c-1.039,0.994-1.589,2.359-1.589,3.95v8.751  c0,0.829,0.672,1.5,1.5,1.5s1.5-0.671,1.5-1.5V20.31c0-0.769,0.214-1.35,0.655-1.775c0.212-0.204,0.47-0.364,0.745-0.495v26.572  c0,1.104,0.896,2,2,2s2-0.896,2-2V31.761h3.551v12.852c0,1.104,0.896,2,2,2s2-0.896,2-2V18.04c0.275,0.131,0.533,0.291,0.745,0.495  c0.441,0.425,0.655,1.006,0.655,1.775v8.751c0,0.829,0.672,1.5,1.5,1.5s1.5-0.671,1.5-1.5V20.31  C34.176,18.72,33.626,17.354,32.587,16.36z"/></svg>