<?xml version="1.0" encoding="UTF-8"?>
<svg width="752pt" height="752pt" version="1.1" viewBox="0 0 752 752" xmlns="http://www.w3.org/2000/svg">
 <g fill="#1d4377">
  <path d="m300.23 189.95c-4.0586 0-6.7656-2.707-6.7656-6.7656l0.003906-23.68c0-4.0586 2.707-6.7656 6.7656-6.7656 4.0586 0 6.7656 2.707 6.7656 6.7656v23.68c-0.003906 4.0586-2.707 6.7656-6.7695 6.7656z"/>
  <path d="m441.62 307.67h-23.68c-4.0586 0-6.7656-2.707-6.7656-6.7656s2.707-6.7656 6.7656-6.7656h23.68c4.0586 0 6.7656 2.707 6.7656 6.7656s-3.3828 6.7656-6.7656 6.7656z"/>
  <path d="m183.19 307.67h-23.68c-4.0586 0-6.7656-2.707-6.7656-6.7656s2.707-6.7656 6.7656-6.7656h23.68c4.0586 0 6.7656 2.707 6.7656 6.7656s-2.707 6.7656-6.7656 6.7656z"/>
  <path d="m378.71 222.43c-2.707-2.707-2.707-6.7656 0-9.4727l16.914-16.914c2.707-2.707 6.7656-2.707 9.4727 0 2.707 2.707 2.707 6.7656 0 9.4727l-16.914 16.914c-2.707 2.707-6.7656 2.707-9.4727 0z"/>
  <path d="m212.95 222.43-16.914-16.914c-2.7031-2.707-2.7031-6.7656 0-9.4727 2.707-2.707 6.7656-2.707 9.4727 0l16.914 16.914c2.707 2.707 2.707 6.7656 0 9.4727s-6.7656 2.707-9.4727 0z"/>
  <path d="m189.27 263.02-21.648-8.7969c-3.3828-1.3516-5.4141-5.4141-3.3828-8.7969 1.3516-3.3828 5.4141-5.4141 8.7969-3.3828l21.648 8.7969c3.3828 1.3516 5.4141 5.4141 3.3828 8.7969-1.3516 2.707-5.4141 4.7344-8.7969 3.3828z"/>
  <path d="m342.18 198.07c-3.3828-1.3516-5.4141-5.4141-3.3828-8.7969l8.7969-22.324c1.3516-3.3828 5.4141-5.4141 8.7969-3.3828 3.3828 1.3516 5.4141 5.4141 3.3828 8.7969l-8.7969 22.324c-1.3555 3.3828-5.4141 4.7344-8.7969 3.3828z"/>
  <path d="m248.81 195.36-9.4727-22.324c-1.3516-3.3828 0-7.4414 3.3828-8.7969 3.3828-1.3516 7.4414 0 8.7969 3.3828l9.4688 22.328c1.3516 3.3828 0 7.4414-3.3828 8.7969-3.3828 1.3516-7.4414-0.003906-8.793-3.3867z"/>
  <path d="m402.39 258.28c-1.3516-3.3828 0-7.4414 3.3828-8.7969l21.648-9.4727c3.3828-1.3516 7.4414 0 8.7969 3.3828 1.3516 3.3828 0 7.4414-3.3828 8.7969l-21.648 9.4727c-3.3828 1.3555-7.4453 0-8.7969-3.3828z"/>
  <path d="m267.75 441.62c-5.4141 0-9.4727-4.0586-10.148-9.4727-1.3516-22.324-11.5-44.652-27.738-61.566-20.297-21.648-31.121-50.742-28.414-80.508 4.7344-50.062 44.652-89.301 93.363-92.684 27.062-1.3516 52.77 7.4414 72.391 26.387 20.297 18.941 32.473 46.004 32.473 74.418 0 26.387-9.4727 51.418-27.738 71.039-16.238 17.59-25.707 39.238-27.062 62.242-0.67578 5.4141-4.7344 10.148-10.148 10.148zm3.3828-10.148m-3.3828-3.3828m32.473-217.17h-5.4141c-41.945 2.707-76.449 36.535-79.832 79.832-2.0312 26.387 6.7656 52.094 24.355 70.359 17.59 18.266 29.09 41.945 31.121 66.977h60.211c2.0312-25.031 12.855-48.711 30.445-67.656 15.559-16.914 24.355-38.562 23.68-61.566 0-24.355-10.148-48.035-27.738-64.949-14.879-14.879-35.176-22.996-56.828-22.996z"/>
  <path d="m301.58 441.62c-4.0586 0-6.7656-2.707-6.7656-6.7656v-96.746c0-2.0312 0.67578-3.3828 2.0312-4.7344l36.535-36.535c2.707-2.707 6.7656-2.707 9.4727 0s2.707 6.7656 0 9.4727l-34.508 34.504v94.039c0 4.0625-2.707 6.7656-6.7656 6.7656z"/>
  <path d="m301.58 344.88c-2.0312 0-3.3828-0.67578-4.7344-2.0312l-35.859-36.531c-2.707-2.707-2.707-6.7656 0-9.4727s6.7656-2.707 9.4727 0l35.855 36.535c2.707 2.707 2.707 6.7656 0 9.4727-1.3516 1.3516-2.707 2.0273-4.7344 2.0273z"/>
  <path d="m355.03 483.57h-108.92c-4.0586 0-6.7656-2.707-6.7656-6.7656v-41.945c0-4.0586 2.707-6.7656 6.7656-6.7656h109.6c4.0586 0 6.7656 2.707 6.7656 6.7656v41.945c-0.67969 4.0625-3.3867 6.7656-7.4453 6.7656zm-102.16-13.527h96.07v-28.414l-96.07-0.003906z"/>
  <path d="m326.61 529.58h-52.094c-4.0586 0-6.7656-2.707-6.7656-6.7656v-46.004h13.531v39.238h38.562v-39.238h13.531v46.004c0 4.0586-2.707 6.7656-6.7656 6.7656z"/>
  <path d="m348.26 508.61h-21.648c-4.0586 0-6.7656-2.707-6.7656-6.7656s2.707-6.7656 6.7656-6.7656h21.648c4.0586 0 6.7656 2.707 6.7656 6.7656s-3.3828 6.7656-6.7656 6.7656z"/>
  <path d="m274.52 508.61h-21.648c-4.0586 0-6.7656-2.707-6.7656-6.7656s2.707-6.7656 6.7656-6.7656h21.648c4.0586 0 6.7656 2.707 6.7656 6.7656s-3.3828 6.7656-6.7656 6.7656z"/>
  <path d="m524.84 555.96h-30.445c-29.09 0-52.094-23.68-52.094-52.094v-60.891c0-4.0586 2.707-6.7656 6.7656-6.7656h121.78c4.0586 0 6.7656 2.707 6.7656 6.7656v60.891c-0.67578 28.414-24.352 52.094-52.77 52.094zm-69.684-106.21v54.125c0 21.648 17.59 38.562 38.562 38.562l31.121-0.003906c21.648 0 38.562-17.59 38.562-38.562v-54.125z"/>
  <path d="m578.96 449.75h-139.37c-10.824 0-20.297-8.7969-20.297-20.297v-8.7969c0-10.824 8.7969-20.297 20.297-20.297h139.37c10.824 0 20.297 8.7969 20.297 20.297v8.7969c0 11.5-8.7969 20.297-20.297 20.297zm-139.37-35.184c-3.3828 0-6.7656 2.707-6.7656 6.7656v8.7969c0 3.3828 2.707 6.7656 6.7656 6.7656h139.37c3.3828 0 6.7656-2.707 6.7656-6.7656v-8.7969c0-3.3828-2.707-6.7656-6.7656-6.7656z"/>
  <path d="m483.57 414.56h-21.648c-4.0586 0-6.7656-2.707-6.7656-6.7656v-53.445c0-8.1172 6.7656-14.883 14.883-14.883h5.4141c8.1172 0 14.883 6.7656 14.883 14.883v53.445c0 3.3867-3.3828 6.7656-6.7656 6.7656zm-14.883-13.527h8.1172v-46.68c0-0.67578-0.67578-1.3516-1.3516-1.3516h-5.4141c-0.67578 0-1.3516 0.67578-1.3516 1.3516z"/>
  <path d="m556.64 414.56h-21.648c-4.0586 0-6.7656-2.707-6.7656-6.7656v-53.445c0-8.1172 6.7656-14.883 14.883-14.883h5.4141c8.1172 0 14.883 6.7656 14.883 14.883v53.445c-0.003906 3.3867-3.3867 6.7656-6.7656 6.7656zm-14.887-13.527h8.1172v-46.68c0-0.67578-0.67578-1.3516-1.3516-1.3516h-5.4141c-0.67578 0-1.3516 0.67578-1.3516 1.3516z"/>
  <path d="m465.98 599.26h-122.45c-27.738 0-50.062-22.324-50.062-50.062v-26.387c0-4.0586 2.707-6.7656 6.7656-6.7656 4.0586 0 6.7656 2.707 6.7656 6.7656v26.387c0 20.297 16.238 36.535 36.535 36.535h122.45c20.297 0 36.535-16.238 36.535-36.535 0-4.0586 2.707-6.7656 6.7656-6.7656s6.7656 2.707 6.7656 6.7656c-0.003906 27.734-22.332 50.062-50.07 50.062z"/>
 </g>
</svg>
