<?xml version="1.0" encoding="UTF-8"?>
<svg width="752pt" height="752pt" version="1.1" viewBox="0 0 752 752" xmlns="http://www.w3.org/2000/svg">
 <defs>
  <clipPath id="a">
   <path d="m139.21 139.21h473.58v473.58h-473.58z"/>
  </clipPath>
 </defs>
 <g clip-path="url(#a)">
  <path d="m589.11 336.54h-44.992c-14.539-28.191-35.91-52.297-62.164-70.105 10.797-9.3008 20.875-19.41 30.145-30.238 4.9844-5.8555 4.9844-14.465 0-20.324-14.406-16.984-64.133-70.215-125.25-76.07-3.2461-0.375-6.5078-0.57031-9.7734-0.58594h-0.55078-0.52344c-66.039 0-120.86 58.676-136.08 76.656-4.9883 5.8594-4.9883 14.469 0 20.324 9.2695 10.828 19.348 20.938 30.145 30.238-26.258 17.809-47.637 41.91-62.184 70.105h-44.988c-13.078 0-23.68 10.602-23.68 23.68v126.29c0 13.078 10.602 23.68 23.68 23.68h44.832c32.457 63.012 97.398 102.61 168.28 102.61 70.883 0 135.82-39.602 168.28-102.61h44.832c13.078 0 23.68-10.602 23.68-23.68v-126.29c0-13.078-10.602-23.68-23.68-23.68zm-89.113-110.5c-14.137 16.559-30.297 31.281-48.098 43.82 15.98-27.016 15.98-60.594 0-87.613 17.797 12.531 33.957 27.246 48.098 43.793zm-123.48-71.039c2.9648 0 5.9023 0.21484 8.8164 0.49219 35.797 4.1523 62.801 34.477 62.801 70.516 0 36.039-27.004 66.359-62.801 70.516-2.9219 0.27734-5.8594 0.47266-8.8242 0.48828-38.391-1.1484-68.918-32.602-68.918-71.008 0.003906-38.41 30.535-69.859 68.926-71.004zm-0.51562 157.86h0.52344 0.55078c3.2656-0.011719 6.5273-0.20703 9.7734-0.58203 18.184-2.0195 35.809-7.5117 51.918-16.18 59.266 29.172 90.602 95.344 75.625 159.68-14.977 64.332-72.316 109.86-138.38 109.86-66.055 0-123.39-45.527-138.37-109.86-14.98-64.336 16.359-130.51 75.625-159.68 19.258 10.547 40.777 16.297 62.73 16.762zm-124.03-86.781c15.098-17.727 32.527-33.328 51.812-46.371-18.039 28.258-18.039 64.414 0 92.672-19.273-13.035-36.699-28.609-51.812-46.301zm-89.078 268.32c-4.3594 0-7.8945-3.5352-7.8945-7.8945v-7.8945h7.8945c4.3594 0 7.8906-3.5312 7.8906-7.8906s-3.5312-7.8945-7.8906-7.8945h-7.8945v-15.785h7.8945c4.3594 0 7.8906-3.5352 7.8906-7.8945s-3.5312-7.8906-7.8906-7.8906h-7.8945v-15.789h7.8945c4.3594 0 7.8906-3.5312 7.8906-7.8906s-3.5312-7.8945-7.8906-7.8945h-7.8945v-15.785h7.8945c4.3594 0 7.8906-3.5352 7.8906-7.8945s-3.5312-7.8906-7.8906-7.8906h-7.8945v-7.8945c0-4.3594 3.5352-7.8906 7.8945-7.8906h37.656c-18.602 45.523-18.637 96.52-0.10156 142.07zm213.11 102.61c-77.238 0.050782-145.21-50.953-166.76-125.13-21.543-74.172 8.5273-153.66 73.773-194.99 4.4727 3.3828 9.1602 6.7227 14.125 9.9258-61.906 35.703-92.109 108.54-73.633 177.57 18.48 69.035 81.031 117.04 152.49 117.04 71.465 0 134.02-48.008 152.49-117.04 18.48-69.031-11.723-141.87-73.633-177.57 4.9648-3.2031 9.6562-6.543 14.129-9.9258 65.246 41.336 95.316 120.82 73.77 194.99-21.543 74.176-89.52 125.18-166.76 125.13zm213.11-102.61h-37.555c18.535-45.555 18.5-96.551-0.10156-142.07h37.656c4.3594 0 7.8906 3.5312 7.8906 7.8906v7.8945h-7.8906c-4.3594 0-7.8945 3.5312-7.8945 7.8906s3.5352 7.8945 7.8945 7.8945h7.8906v15.785h-7.8906c-4.3594 0-7.8945 3.5352-7.8945 7.8945s3.5352 7.8906 7.8945 7.8906h7.8906v15.789h-7.8906c-4.3594 0-7.8945 3.5312-7.8945 7.8906s3.5352 7.8945 7.8945 7.8945h7.8906v15.785h-7.8906c-4.3594 0-7.8945 3.5352-7.8945 7.8945s3.5352 7.8906 7.8945 7.8906h7.8906v7.8945c0 4.3594-3.5312 7.8945-7.8906 7.8945z" fill="#1d4377"/>
 </g>
 <path d="m273.39 391.79c0 8.7148 7.0703 15.785 15.789 15.785h173.64c8.7188 0 15.785-7.0703 15.785-15.785v-31.574c0-8.7188-7.0664-15.785-15.785-15.785h-173.64c-8.7188 0-15.789 7.0664-15.789 15.785zm126.29 0h-15.785v-31.574h15.785zm15.785-31.574h15.789v31.574h-15.789zm-47.355 31.574h-15.785v-31.574h15.785zm-31.574 0h-15.785v-31.574h15.785zm126.29 0h-15.785v-31.574h15.785zm-173.64-31.574h15.785v31.574h-15.785z" fill="#1d4377"/>
 <path d="m312.86 439.14h-39.465c-4.3594 0-7.8906 3.5352-7.8906 7.8945 0 4.3594 3.5312 7.8906 7.8906 7.8906h39.465c4.3594 0 7.8945-3.5312 7.8945-7.8906 0-4.3594-3.5352-7.8945-7.8945-7.8945z" fill="#1d4377"/>
 <path d="m312.86 470.72h-39.465c-4.3594 0-7.8906 3.5312-7.8906 7.8906s3.5312 7.8945 7.8906 7.8945h39.465c4.3594 0 7.8945-3.5352 7.8945-7.8945s-3.5352-7.8906-7.8945-7.8906z" fill="#1d4377"/>
 <path d="m439.14 439.14c-4.3594 0-7.8906 3.5352-7.8906 7.8945 0 4.3594 3.5312 7.8906 7.8906 7.8906h39.465c4.3594 0 7.8945-3.5312 7.8945-7.8906 0-4.3594-3.5352-7.8945-7.8945-7.8945z" fill="#1d4377"/>
 <path d="m478.61 470.72h-39.465c-4.3594 0-7.8906 3.5312-7.8906 7.8906s3.5312 7.8945 7.8906 7.8945h39.465c4.3594 0 7.8945-3.5352 7.8945-7.8945s-3.5352-7.8906-7.8945-7.8906z" fill="#1d4377"/>
 <path d="m375.72 281.29h0.28125c1.1016 0 2.1992-0.058594 3.293-0.17188 17.117-1.6914 29.785-16.691 28.582-33.852-1.207-17.156-15.844-30.242-33.027-29.523-17.188 0.71875-30.68 14.98-30.449 32.18 0.23437 17.199 14.113 31.094 31.312 31.344zm-11.984-41.484c2.6289-3.2656 6.457-5.3398 10.625-5.7617 0.5625-0.058593 1.1211-0.089843 1.6797-0.089843 8.3828 0.039062 15.273 6.625 15.695 14.996 0.41797 8.375-5.7773 15.613-14.113 16.492-6.3516 0.66406-12.48-2.5586-15.523-8.1719-3.0469-5.6094-2.4141-12.504 1.6055-17.465z" fill="#1d4377"/>
 <path d="m406.55 471.6-0.17188-0.14844c-7.5977-6.8047-11.973-16.496-12.047-26.695v-1.375c0.12109-3.2812 0.71094-6.5273 1.7539-9.6445 1.0039-3.0312 0.078125-6.3711-2.3398-8.457-2.4219-2.0859-5.8594-2.5078-8.7109-1.0703-8.6797 4.3789-16.082 10.922-21.492 19-4.6133 6.9102-7.4766 14.84-8.3438 23.102-1.1758 0.074219-2.3203 0.40234-3.3555 0.97266-14.074 7.5469-22.949 22.129-23.195 38.098 0.90625 25.277 22.078 45.062 47.355 44.266 19.477 0.32422 37.164-11.305 44.582-29.316 4.3047-11.199 3.5781-23.711-1.9883-34.34-3.1523-5.457-7.2305-10.328-12.047-14.391zm-0.70312 43.07c-5.0742 11.91-16.902 19.516-29.844 19.191-16.559 0.78516-30.652-11.926-31.57-28.48 0.023437-6.6094 2.5039-12.977 6.9609-17.859 3.5156 6.9336 9.0859 12.613 15.953 16.258 3.2305 1.7344 7.2344 1.0156 9.6562-1.7383 2.4258-2.7539 2.6328-6.8164 0.5-9.8008-8.7031-11.938-9.0195-28.047-0.78906-40.316 0.63281-0.94922 1.3086-1.8711 2.0312-2.7656 1.1719 12.945 7.1562 24.977 16.762 33.727 0.066406 0.070312 0.13281 0.13281 0.20703 0.19141 3.5078 2.8906 6.5117 6.3438 8.8945 10.215 1.957 3.7266 2.9766 7.8789 2.9688 12.09 0.003906 3.1797-0.58203 6.3281-1.7305 9.2891z" fill="#1d4377"/>
</svg>
