<?xml version="1.0" encoding="UTF-8"?>
<svg width="752pt" height="752pt" version="1.1" viewBox="0 0 752 752" xmlns="http://www.w3.org/2000/svg">
 <defs>
  <clipPath id="a">
   <path d="m139.21 139.21h473.58v473.58h-473.58z"/>
  </clipPath>
 </defs>
 <path d="m411.39 470.53-28.062-43.223c-1.6211-2.4648-4.3711-3.9453-7.3242-3.9453-2.957-0.007813-5.7188 1.4766-7.3477 3.9453l-30.781 47.359c-2.3555 3.3203-4.3789 6.8633-6.0391 10.578-2.1133 5.0938-3.1953 10.559-3.1875 16.078 0.035157 11.633 4.8125 22.75 13.227 30.781 9.1875 8.7773 21.422 13.652 34.129 13.602h1.3438c20.82-0.40625 38.938-14.363 44.633-34.391 2.6562-10.457 1.0234-21.539-4.5352-30.785-1.7852-3.4102-3.9023-6.6523-6.0547-10zm-4.6016 36.672c-3.8672 13.305-15.973 22.523-29.828 22.715-8.9258 0.32422-17.609-2.9609-24.082-9.1172-5.3477-5.0742-8.3984-12.105-8.4453-19.477 0-3.4297 0.67578-6.8281 1.9961-9.9922 1.2852-2.7695 2.8242-5.4141 4.6016-7.8945l24.973-38.438 22.148 34.129c1.918 2.9492 3.8203 5.8711 5.4375 8.8633 3.7109 5.6719 4.8711 12.641 3.1992 19.211z" fill="#1d4377"/>
 <g clip-path="url(#a)">
  <path d="m589.11 336.54h-44.992c-14.539-28.191-35.91-52.297-62.164-70.105 10.797-9.3008 20.867-19.406 30.137-30.23 4.9922-5.8555 4.9922-14.473 0-20.332-14.398-16.984-64.117-70.215-125.24-76.07-3.2461-0.37891-6.5078-0.57422-9.7734-0.58594h-0.55859-0.52344c-66.031 0-120.86 58.676-136.07 76.656-4.9961 5.8555-4.9961 14.473 0 20.324 9.2656 10.828 19.34 20.938 30.137 30.238-26.258 17.809-47.637 41.91-62.184 70.105h-44.988c-13.078 0-23.68 10.602-23.68 23.68v126.29c0 13.078 10.602 23.68 23.68 23.68h44.832c32.457 63.012 97.398 102.61 168.28 102.61 70.883 0 135.82-39.602 168.28-102.61h44.832c13.078 0 23.68-10.602 23.68-23.68v-126.29c0-13.078-10.602-23.68-23.68-23.68zm-89.074-110.5 6.0234 5.0977zm-0.039062 0c-14.141 16.559-30.301 31.277-48.098 43.82 15.98-27.016 15.98-60.594 0-87.613 17.797 12.531 33.957 27.242 48.098 43.793zm-123.48-71.039c2.9648 0 5.9023 0.22266 8.8242 0.5 35.781 4.168 62.77 34.484 62.77 70.512 0 36.023-26.988 66.34-62.77 70.512-2.9219 0.27734-5.8594 0.48047-8.8242 0.49609-38.449-1.0703-69.059-32.547-69.059-71.008 0-38.461 30.609-69.938 69.059-71.012zm-0.51562 157.86h0.52344 0.55859c3.2656-0.011719 6.5273-0.21094 9.7734-0.58984 18.18-2.0195 35.801-7.5078 51.91-16.172 59.266 29.172 90.602 95.344 75.625 159.68-14.977 64.332-72.316 109.86-138.38 109.86-66.055 0-123.39-45.527-138.37-109.86-14.98-64.336 16.359-130.51 75.625-159.68 19.258 10.543 40.777 16.297 62.73 16.762zm-124.04-86.82c15.105-17.715 32.535-33.301 51.82-46.34-18.039 28.262-18.039 64.422 0 92.688-19.281-13.047-36.711-28.637-51.82-46.348zm-89.07 268.36c-4.3594 0-7.8945-3.5352-7.8945-7.8945v-7.8945h7.8945c4.3594 0 7.8906-3.5312 7.8906-7.8906s-3.5312-7.8945-7.8906-7.8945h-7.8945v-15.785h7.8945c4.3594 0 7.8906-3.5352 7.8906-7.8945s-3.5312-7.8906-7.8906-7.8906h-7.8945v-15.789h7.8945c4.3594 0 7.8906-3.5312 7.8906-7.8906s-3.5312-7.8945-7.8906-7.8945h-7.8945v-15.785h7.8945c4.3594 0 7.8906-3.5352 7.8906-7.8945s-3.5312-7.8906-7.8906-7.8906h-7.8945v-7.8945c0-4.3594 3.5352-7.8906 7.8945-7.8906h37.656c-18.602 45.523-18.637 96.52-0.10156 142.07zm213.11 102.61c-77.238 0.054688-145.21-50.949-166.76-125.12-21.547-74.172 8.5234-153.66 73.77-195 4.4727 3.3828 9.168 6.7227 14.133 9.9258-61.906 35.703-92.109 108.54-73.633 177.57 18.48 69.035 81.031 117.04 152.49 117.04 71.465 0 134.02-48.008 152.49-117.04 18.48-69.031-11.723-141.87-73.633-177.57 4.9648-3.2031 9.6641-6.543 14.137-9.9258 65.246 41.336 95.316 120.82 73.77 195-21.547 74.176-89.523 125.18-166.77 125.12zm213.11-102.61h-37.555c18.535-45.555 18.5-96.551-0.10156-142.07h37.656c4.3594 0 7.8906 3.5312 7.8906 7.8906v7.8945h-7.8906c-4.3594 0-7.8945 3.5312-7.8945 7.8906s3.5352 7.8945 7.8945 7.8945h7.8906v15.785h-7.8906c-4.3594 0-7.8945 3.5352-7.8945 7.8945s3.5352 7.8906 7.8945 7.8906h7.8906v15.789h-7.8906c-4.3594 0-7.8945 3.5312-7.8945 7.8906s3.5352 7.8945 7.8945 7.8945h7.8906v15.785h-7.8906c-4.3594 0-7.8945 3.5352-7.8945 7.8945s3.5352 7.8906 7.8945 7.8906h7.8906v7.8945c0 4.3594-3.5312 7.8945-7.8906 7.8945z" fill="#1d4377"/>
 </g>
 <path d="m273.39 391.79c0 8.7148 7.0703 15.785 15.789 15.785h173.64c8.7188 0 15.785-7.0703 15.785-15.785v-31.574c0-8.7188-7.0664-15.785-15.785-15.785h-173.64c-8.7188 0-15.789 7.0664-15.789 15.785zm126.29 0h-15.785v-31.574h15.785zm15.785-31.574h15.789v31.574h-15.789zm-47.355 31.574h-15.785v-31.574h15.785zm-31.574 0h-15.785v-31.574h15.785zm126.29 0h-15.785v-31.574h15.785zm-173.64-31.574h15.785v31.574h-15.785z" fill="#1d4377"/>
 <path d="m312.86 439.14h-39.465c-4.3594 0-7.8906 3.5352-7.8906 7.8945 0 4.3594 3.5312 7.8906 7.8906 7.8906h39.465c4.3594 0 7.8945-3.5312 7.8945-7.8906 0-4.3594-3.5352-7.8945-7.8945-7.8945z" fill="#1d4377"/>
 <path d="m312.86 470.72h-39.465c-4.3594 0-7.8906 3.5312-7.8906 7.8906s3.5312 7.8945 7.8906 7.8945h39.465c4.3594 0 7.8945-3.5352 7.8945-7.8945s-3.5352-7.8906-7.8945-7.8906z" fill="#1d4377"/>
 <path d="m439.14 439.14c-4.3594 0-7.8906 3.5352-7.8906 7.8945 0 4.3594 3.5312 7.8906 7.8906 7.8906h39.465c4.3594 0 7.8945-3.5312 7.8945-7.8906 0-4.3594-3.5352-7.8945-7.8945-7.8945z" fill="#1d4377"/>
 <path d="m478.61 470.72h-39.465c-4.3594 0-7.8906 3.5312-7.8906 7.8906s3.5312 7.8945 7.8906 7.8945h39.465c4.3594 0 7.8945-3.5352 7.8945-7.8945s-3.5352-7.8906-7.8945-7.8906z" fill="#1d4377"/>
 <path d="m356.12 274.25c5.5781 4.5391 12.543 7.0195 19.734 7.0312h0.09375c1.125 0 2.2461-0.058594 3.3633-0.17188 14.98-1.5742 26.762-13.512 28.141-28.512 1.3789-14.996-8.0312-28.883-22.473-33.16-14.438-4.2773-29.891 2.2383-36.906 15.566s-3.6406 29.754 8.0664 39.238zm18.227-40.254c0.54688-0.054688 1.0977-0.074219 1.6484-0.066407 8.0703 0.019531 14.824 6.1133 15.668 14.137 0.90625 8.668-5.3828 16.43-14.051 17.34-8.668 0.91016-16.434-5.375-17.348-14.043-0.91406-8.668 5.3672-16.434 14.035-17.352z" fill="#1d4377"/>
</svg>
